<mxfile host="app.diagrams.net" modified="2024-01-02T07:32:00.075Z" agent="Mozilla/5.0 (Windows NT 10.0; Win64; x64) AppleWebKit/537.36 (KHTML, like Gecko) Chrome/120.0.0.0 Safari/537.36 Edg/120.0.0.0" etag="4NDFt8HJ5NuKUhCuiC6m" version="22.1.16" type="device">
  <diagram name="Page-1" id="Z8El3_Oi5znpC2RM-kcE">
    <mxGraphModel dx="1002" dy="535" grid="1" gridSize="10" guides="1" tooltips="1" connect="1" arrows="1" fold="1" page="1" pageScale="1" pageWidth="850" pageHeight="1100" math="0" shadow="0">
      <root>
        <mxCell id="0" />
        <mxCell id="1" parent="0" />
        <object label="&lt;h2&gt;&lt;font size=&quot;3&quot;&gt;Start&lt;/font&gt;&lt;/h2&gt;" id="7jTzxVGrOqD0VNog1RP9-1">
          <mxCell style="ellipse;whiteSpace=wrap;html=1;fillColor=#FF6666;fontColor=#333333;strokeColor=#666666;" vertex="1" parent="1">
            <mxGeometry x="20" y="40" width="120" height="80" as="geometry" />
          </mxCell>
        </object>
        <mxCell id="7jTzxVGrOqD0VNog1RP9-2" value="" style="endArrow=classic;html=1;rounded=0;" edge="1" parent="1">
          <mxGeometry width="50" height="50" relative="1" as="geometry">
            <mxPoint x="210" y="79.5" as="sourcePoint" />
            <mxPoint x="220" y="79.5" as="targetPoint" />
            <Array as="points">
              <mxPoint x="140" y="79.5" />
            </Array>
          </mxGeometry>
        </mxCell>
        <mxCell id="7jTzxVGrOqD0VNog1RP9-3" value="&lt;h3&gt;Read Input File&lt;/h3&gt;&lt;div&gt;(Customer Purchase list)&lt;/div&gt;" style="rounded=1;whiteSpace=wrap;html=1;" vertex="1" parent="1">
          <mxGeometry x="210" y="50" width="140" height="80" as="geometry" />
        </mxCell>
      </root>
    </mxGraphModel>
  </diagram>
</mxfile>
